<svg width="1200" height="520" viewBox="0 0 1200 520" fill="none" xmlns="http://www.w3.org/2000/svg" role="img" aria-labelledby="title desc">
  <title id="title">ATLAS-0 room safety reports</title>
  <desc id="desc">A polished ATLAS-0 product hero showing a room safety scan that turns a walkthrough into an evidence-backed hazard report.</desc>
  <defs>
    <linearGradient id="page" x1="0" y1="0" x2="1200" y2="520" gradientUnits="userSpaceOnUse">
      <stop stop-color="#071111"/>
      <stop offset="0.58" stop-color="#10100D"/>
      <stop offset="1" stop-color="#17120B"/>
    </linearGradient>
    <linearGradient id="panel" x1="112" y1="72" x2="1088" y2="448" gradientUnits="userSpaceOnUse">
      <stop stop-color="#0C1918"/>
      <stop offset="0.54" stop-color="#111411"/>
      <stop offset="1" stop-color="#1C150D"/>
    </linearGradient>
    <linearGradient id="rim" x1="112" y1="72" x2="1088" y2="448" gradientUnits="userSpaceOnUse">
      <stop stop-color="#18B8A7"/>
      <stop offset="0.52" stop-color="#315D50"/>
      <stop offset="1" stop-color="#D8822D"/>
    </linearGradient>
    <linearGradient id="tile" x1="156" y1="156" x2="316" y2="316" gradientUnits="userSpaceOnUse">
      <stop stop-color="#FFF9EE"/>
      <stop offset="0.72" stop-color="#FFF7E8"/>
      <stop offset="1" stop-color="#F5B655"/>
    </linearGradient>
    <linearGradient id="teal" x1="0" y1="0" x2="1" y2="1">
      <stop stop-color="#19C6B4"/>
      <stop offset="1" stop-color="#08786E"/>
    </linearGradient>
    <filter id="drop" x="-20%" y="-20%" width="140%" height="150%" color-interpolation-filters="sRGB">
      <feDropShadow dx="0" dy="18" stdDeviation="22" flood-color="#000000" flood-opacity="0.38"/>
    </filter>
  </defs>

  <rect width="1200" height="520" rx="44" fill="url(#page)"/>
  <rect x="64" y="52" width="1072" height="416" rx="38" fill="url(#panel)"/>
  <rect x="65" y="53" width="1070" height="414" rx="37" stroke="url(#rim)" stroke-opacity="0.82" stroke-width="2"/>

  <path d="M64 52H1136V190C997 164 850 164 696 188C515 216 341 210 174 169C132 159 95 145 64 128V52Z" fill="#0D2020" opacity="0.58"/>
  <path d="M1000 99C1070 124 1112 184 1136 255V468H820C868 411 891 348 891 280C891 186 929 116 1000 99Z" fill="#2A170A" opacity="0.48"/>
  <circle cx="965" cy="286" r="118" stroke="#FFF2DD" stroke-opacity="0.055" stroke-width="2"/>
  <circle cx="965" cy="286" r="58" stroke="#FFF2DD" stroke-opacity="0.06" stroke-width="2"/>
  <path d="M721 151H1018" stroke="#FFFFFF" stroke-opacity="0.08"/>
  <path d="M740 198H1062" stroke="#FFFFFF" stroke-opacity="0.07"/>

  <g filter="url(#drop)">
    <rect x="142" y="146" width="188" height="188" rx="44" fill="url(#tile)"/>
    <rect x="142" y="146" width="188" height="188" rx="44" stroke="#12A99A" stroke-width="7"/>
    <rect x="154" y="158" width="164" height="164" rx="34" stroke="#F3C584" stroke-opacity="0.62" stroke-width="3"/>
    <path d="M184 242L236 193L288 242" stroke="#171312" stroke-width="14" stroke-linecap="round" stroke-linejoin="round"/>
    <path d="M203 237V283C203 291 209 297 217 297H274C282 297 288 291 288 283V237" stroke="#171312" stroke-width="14" stroke-linecap="round"/>
    <path d="M257 247C274 236 294 232 310 236" stroke="#0CA292" stroke-width="14" stroke-linecap="round"/>
    <path d="M266 273C281 264 296 261 310 264" stroke="#E98224" stroke-width="14" stroke-linecap="round"/>
    <circle cx="245" cy="294" r="11" fill="#0CA292"/>
  </g>

  <g font-family="Aptos Display, Segoe UI, Arial, sans-serif">
    <rect x="382" y="142" width="183" height="35" rx="17.5" fill="#FFFFFF" fill-opacity="0.08" stroke="#FFFFFF" stroke-opacity="0.14"/>
    <text x="407" y="165" fill="#E9DED0" font-size="15" font-weight="800">ROOM SAFETY SCAN</text>
    <text x="380" y="256" fill="#FFFFFF" font-size="86" font-weight="900">ATLAS-0</text>
    <text x="383" y="307" fill="#F2E9DF" font-size="29" font-weight="800">Turn a walkthrough into a hazard report.</text>
    <text x="385" y="344" fill="#B5AAA0" font-size="20">Evidence frames, confidence signals, fix-first actions, and PDF export.</text>
  </g>

  <g font-family="Aptos, Segoe UI, Arial, sans-serif">
    <rect x="142" y="372" width="270" height="62" rx="22" fill="#FFFFFF" fill-opacity="0.07" stroke="#FFFFFF" stroke-opacity="0.13"/>
    <circle cx="180" cy="403" r="16" fill="url(#teal)"/>
    <path d="M172 403L178 409L190 395" stroke="#FFFFFF" stroke-width="4" stroke-linecap="round" stroke-linejoin="round"/>
    <text x="207" y="396" fill="#FFFFFF" font-size="18" font-weight="850">Ranked risks</text>
    <text x="207" y="420" fill="#AFA49A" font-size="15">Top hazards first</text>

    <rect x="466" y="372" width="270" height="62" rx="22" fill="#FFFFFF" fill-opacity="0.07" stroke="#FFFFFF" stroke-opacity="0.13"/>
    <circle cx="504" cy="403" r="16" fill="#E98224"/>
    <path d="M497 403H511M504 396V410" stroke="#FFFFFF" stroke-width="4" stroke-linecap="round"/>
    <text x="531" y="396" fill="#FFFFFF" font-size="18" font-weight="850">Evidence frames</text>
    <text x="531" y="420" fill="#AFA49A" font-size="15">Show what it saw</text>

    <rect x="790" y="372" width="270" height="62" rx="22" fill="#FFFFFF" fill-opacity="0.07" stroke="#FFFFFF" stroke-opacity="0.13"/>
    <circle cx="828" cy="403" r="16" fill="#C96F3A"/>
    <path d="M820 406L828 397L836 406" stroke="#FFFFFF" stroke-width="4" stroke-linecap="round" stroke-linejoin="round"/>
    <text x="855" y="396" fill="#FFFFFF" font-size="18" font-weight="850">Honest confidence</text>
    <text x="855" y="420" fill="#AFA49A" font-size="15">No fake certainty</text>
  </g>
</svg>
