<svg width="1200" height="520" viewBox="0 0 1200 520" fill="none" xmlns="http://www.w3.org/2000/svg" role="img" aria-labelledby="title desc">
  <title id="title">ATLAS-0 Room Safety Brief</title>
  <desc id="desc">A warm, polished ATLAS-0 product banner showing a phone walkthrough becoming an evidence-backed room safety brief.</desc>
  <defs>
    <linearGradient id="page" x1="0" y1="0" x2="1200" y2="520" gradientUnits="userSpaceOnUse">
      <stop stop-color="#061311"/>
      <stop offset="0.54" stop-color="#11140F"/>
      <stop offset="1" stop-color="#24170B"/>
    </linearGradient>
    <linearGradient id="panel" x1="88" y1="64" x2="1112" y2="456" gradientUnits="userSpaceOnUse">
      <stop stop-color="#10211E"/>
      <stop offset="0.52" stop-color="#151611"/>
      <stop offset="1" stop-color="#281909"/>
    </linearGradient>
    <linearGradient id="rim" x1="88" y1="64" x2="1112" y2="456" gradientUnits="userSpaceOnUse">
      <stop stop-color="#19B7A8"/>
      <stop offset="0.48" stop-color="#657C62"/>
      <stop offset="1" stop-color="#E28B2C"/>
    </linearGradient>
    <linearGradient id="tile" x1="160" y1="154" x2="330" y2="324" gradientUnits="userSpaceOnUse">
      <stop stop-color="#FFF9EF"/>
      <stop offset="0.72" stop-color="#FFF1DD"/>
      <stop offset="1" stop-color="#F7B655"/>
    </linearGradient>
    <linearGradient id="teal" x1="0" y1="0" x2="1" y2="1">
      <stop stop-color="#21CAB8"/>
      <stop offset="1" stop-color="#087C72"/>
    </linearGradient>
    <filter id="softShadow" x="-20%" y="-20%" width="140%" height="150%" color-interpolation-filters="sRGB">
      <feDropShadow dx="0" dy="20" stdDeviation="24" flood-color="#000000" flood-opacity="0.36"/>
    </filter>
    <filter id="titleGlow" x="-8%" y="-20%" width="116%" height="150%" color-interpolation-filters="sRGB">
      <feDropShadow dx="0" dy="10" stdDeviation="10" flood-color="#FFFFFF" flood-opacity="0.18"/>
    </filter>
  </defs>

  <rect width="1200" height="520" rx="44" fill="url(#page)"/>
  <circle cx="1005" cy="114" r="178" fill="#E28B2C" opacity="0.12"/>
  <circle cx="146" cy="446" r="210" fill="#18B8A7" opacity="0.10"/>
  <rect x="72" y="54" width="1056" height="412" rx="42" fill="url(#panel)"/>
  <rect x="73.5" y="55.5" width="1053" height="409" rx="40.5" stroke="url(#rim)" stroke-opacity="0.76" stroke-width="3"/>

  <path d="M72 54H1128V178C984 155 848 158 720 186C526 229 337 216 153 148C120 136 93 124 72 112V54Z" fill="#0D2321" opacity="0.62"/>
  <path d="M925 64C1056 92 1128 178 1128 311V466H792C844 419 875 363 884 298C898 199 911 122 925 64Z" fill="#2A1608" opacity="0.52"/>
  <circle cx="965" cy="294" r="128" stroke="#FFF5E6" stroke-opacity="0.055" stroke-width="2"/>
  <circle cx="965" cy="294" r="66" stroke="#FFF5E6" stroke-opacity="0.07" stroke-width="2"/>
  <path d="M708 158H1015" stroke="#FFF5E6" stroke-opacity="0.08"/>
  <path d="M730 210H1058" stroke="#FFF5E6" stroke-opacity="0.065"/>
  <path d="M720 264H1008" stroke="#FFF5E6" stroke-opacity="0.05"/>

  <g filter="url(#softShadow)">
    <rect x="138" y="142" width="214" height="214" rx="52" fill="url(#tile)"/>
    <rect x="138" y="142" width="214" height="214" rx="52" stroke="#16B6A8" stroke-width="8"/>
    <rect x="154" y="158" width="182" height="182" rx="40" stroke="#F4C78D" stroke-opacity="0.62" stroke-width="3"/>
    <path d="M185 252L245 196L305 252" stroke="#181312" stroke-width="15" stroke-linecap="round" stroke-linejoin="round"/>
    <path d="M207 247V298C207 307 214 314 223 314H286C295 314 302 307 302 298V247" stroke="#181312" stroke-width="15" stroke-linecap="round"/>
    <path d="M267 256C287 244 309 240 328 246" stroke="#0CA292" stroke-width="15" stroke-linecap="round"/>
    <path d="M276 286C293 275 311 272 328 276" stroke="#E98224" stroke-width="15" stroke-linecap="round"/>
    <circle cx="252" cy="311" r="12" fill="#0CA292"/>
  </g>

  <g font-family="Aptos Display, Avenir Next, Segoe UI, Arial, sans-serif">
    <rect x="410" y="136" width="198" height="38" rx="19" fill="#FFFFFF" fill-opacity="0.08" stroke="#FFFFFF" stroke-opacity="0.16"/>
    <text x="438" y="161" fill="#F0E8DC" font-size="15" font-weight="800" letter-spacing="1.8">ROOM SAFETY BRIEF</text>
    <text x="408" y="254" fill="#FFFFFF" font-size="88" font-weight="900" filter="url(#titleGlow)" letter-spacing="-5">ATLAS-0</text>
    <text x="413" y="305" fill="#F5EDE2" font-size="30" font-weight="800">Upload a walkthrough. Leave with a fix-first report.</text>
    <text x="414" y="344" fill="#BEB2A8" font-size="20">Evidence frames, calibrated confidence, practical next actions, and PDF export.</text>
  </g>

  <g font-family="Aptos, Avenir Next, Segoe UI, Arial, sans-serif">
    <rect x="138" y="386" width="282" height="62" rx="22" fill="#FFFFFF" fill-opacity="0.075" stroke="#FFFFFF" stroke-opacity="0.14"/>
    <circle cx="176" cy="417" r="17" fill="url(#teal)"/>
    <path d="M168 417L174 423L188 409" stroke="#FFFFFF" stroke-width="4.2" stroke-linecap="round" stroke-linejoin="round"/>
    <text x="206" y="410" fill="#FFFFFF" font-size="18" font-weight="850">Top 3 actions</text>
    <text x="206" y="434" fill="#B2A79D" font-size="15">Fix-first, not fear-first</text>

    <rect x="460" y="386" width="282" height="62" rx="22" fill="#FFFFFF" fill-opacity="0.075" stroke="#FFFFFF" stroke-opacity="0.14"/>
    <circle cx="498" cy="417" r="17" fill="#E98224"/>
    <path d="M491 417H505M498 410V424" stroke="#FFFFFF" stroke-width="4.2" stroke-linecap="round"/>
    <text x="528" y="410" fill="#FFFFFF" font-size="18" font-weight="850">Evidence frames</text>
    <text x="528" y="434" fill="#B2A79D" font-size="15">Show what the scan saw</text>

    <rect x="782" y="386" width="282" height="62" rx="22" fill="#FFFFFF" fill-opacity="0.075" stroke="#FFFFFF" stroke-opacity="0.14"/>
    <circle cx="820" cy="417" r="17" fill="#C8753B"/>
    <path d="M812 421L820 411L829 421" stroke="#FFFFFF" stroke-width="4.2" stroke-linecap="round" stroke-linejoin="round"/>
    <text x="850" y="410" fill="#FFFFFF" font-size="18" font-weight="850">Honest confidence</text>
    <text x="850" y="434" fill="#B2A79D" font-size="15">Decision support only</text>
  </g>
</svg>
